<?xml version="1.0" encoding="UTF-8" ?>
<!DOCTYPE svg PUBLIC "-//W3C//DTD SVG 1.1//EN" "http://www.w3.org/Graphics/SVG/1.1/DTD/svg11.dtd">
<svg width="194pt" height="159pt" viewBox="0 0 194 159" version="1.1" xmlns="http://www.w3.org/2000/svg">
<g id="#000000ff">
<path fill="#000000" opacity="1.00" d=" M 60.43 1.45 C 72.26 0.44 84.14 1.29 95.99 0.96 C 106.39 0.53 116.63 2.72 126.98 3.07 C 136.01 3.42 144.80 5.60 153.61 7.41 C 159.81 8.67 165.20 12.17 170.40 15.61 C 173.25 17.66 176.21 19.89 177.93 23.02 C 179.49 26.97 178.83 31.48 180.62 35.36 C 182.03 37.92 184.75 39.30 186.90 41.14 C 190.30 43.73 192.65 47.73 192.93 52.02 C 193.25 56.62 193.31 61.27 192.79 65.87 C 191.68 72.47 186.80 77.60 184.97 83.95 C 183.71 88.18 183.95 92.64 183.96 97.00 C 184.06 102.01 183.86 107.03 183.99 112.04 C 184.10 118.08 186.07 123.91 186.12 129.96 C 186.20 134.36 186.41 139.11 184.05 143.03 C 179.48 151.59 169.88 155.95 160.76 157.70 C 153.25 158.32 145.67 158.17 138.16 157.78 C 127.72 156.28 117.62 153.04 107.33 150.81 C 103.21 149.96 98.89 149.75 95.00 147.99 C 84.58 143.13 74.67 137.12 63.82 133.18 C 59.61 131.64 55.66 129.48 51.80 127.21 C 46.83 124.26 41.45 121.82 37.25 117.75 C 33.04 113.63 28.21 110.04 24.86 105.13 C 22.41 101.62 21.25 97.45 19.24 93.71 C 17.78 90.97 15.45 88.87 13.26 86.74 C 8.76 82.47 4.56 77.58 2.27 71.75 C 0.51 65.53 -0.17 58.22 3.53 52.55 C 6.64 47.48 10.87 43.21 15.41 39.42 C 17.56 37.59 19.86 35.81 21.32 33.33 C 24.00 28.81 25.31 23.61 28.19 19.19 C 31.29 14.42 34.94 9.95 39.40 6.39 C 41.96 4.43 44.81 2.53 48.11 2.21 C 52.21 1.81 56.34 1.92 60.43 1.45 M 61.43 5.44 C 58.29 5.85 55.13 5.91 51.98 6.03 C 47.01 5.93 42.76 9.05 39.25 12.24 C 34.49 17.10 30.60 22.86 28.25 29.26 C 26.62 33.61 23.99 37.44 21.05 41.00 C 25.00 41.11 28.95 40.81 32.89 41.03 L 33.00 41.94 C 27.06 42.26 20.15 40.90 15.26 45.19 C 11.01 49.12 7.19 53.88 5.33 59.41 C 4.06 65.85 6.68 72.36 10.60 77.39 C 12.91 81.42 17.70 82.51 21.47 84.66 C 19.91 84.51 18.36 84.29 16.81 84.13 C 19.18 86.77 22.05 89.08 23.62 92.34 C 25.49 96.13 26.61 100.35 29.28 103.70 C 32.09 107.22 35.51 110.17 38.81 113.20 C 44.57 118.42 51.58 121.89 58.27 125.73 C 63.35 128.66 69.08 130.13 74.34 132.68 C 81.72 136.26 88.99 140.09 96.36 143.71 C 99.93 145.53 104.07 145.04 107.83 146.16 C 116.26 148.71 124.87 150.55 133.42 152.60 C 141.10 154.58 149.10 154.12 156.95 153.91 C 166.77 152.93 177.68 148.23 181.31 138.33 C 183.90 129.92 179.79 121.50 179.96 113.04 C 179.99 105.68 180.03 98.32 179.95 90.96 C 179.88 86.90 180.30 82.74 182.02 79.02 C 184.11 74.49 187.03 70.34 188.51 65.55 C 189.17 63.09 189.10 60.51 189.14 57.99 C 189.10 54.80 189.12 51.40 187.40 48.59 C 184.95 44.12 179.65 42.28 176.98 38.00 C 174.62 34.04 175.61 29.16 174.00 24.98 C 171.64 21.00 167.26 18.89 163.48 16.50 C 156.22 11.87 147.33 9.17 138.72 10.61 C 125.37 12.16 112.05 9.81 98.82 8.22 C 92.02 7.80 85.02 7.40 78.41 9.38 C 71.71 11.15 65.13 13.51 59.25 17.23 C 53.28 20.20 48.03 24.32 42.46 27.93 C 43.46 26.47 44.55 25.01 46.09 24.07 C 52.03 20.34 57.70 16.13 64.03 13.04 C 68.06 11.13 72.35 9.83 76.63 8.59 C 84.12 6.24 92.10 6.86 99.83 7.22 C 112.94 9.05 126.20 10.90 139.47 9.74 C 137.22 7.83 134.11 7.91 131.35 7.58 C 126.73 6.99 122.05 7.09 117.43 6.57 C 109.63 5.78 101.85 4.63 94.00 4.98 C 83.14 5.27 72.25 4.45 61.43 5.44 Z" />
<path fill="#000000" opacity="1.00" d=" M 85.40 13.39 C 88.93 12.93 92.49 12.86 96.04 12.94 C 103.82 12.96 111.16 16.33 118.97 16.05 C 129.39 16.46 139.74 15.20 150.07 14.12 C 152.92 13.52 154.76 16.06 156.63 17.72 C 153.94 16.89 151.41 15.00 148.47 15.42 C 133.71 16.90 118.55 18.58 103.93 15.05 C 95.59 13.05 86.92 14.00 78.60 15.61 C 72.02 16.94 65.60 19.27 59.86 22.76 C 55.41 25.39 52.45 29.88 47.93 32.42 C 51.11 27.47 55.67 23.49 60.90 20.84 C 68.30 16.33 76.89 14.37 85.40 13.39 Z" />
<path fill="#000000" opacity="1.00" d=" M 79.39 19.39 C 84.58 18.78 89.83 18.88 95.04 18.97 C 97.31 18.93 99.47 19.71 101.48 20.71 C 93.62 20.00 85.64 19.34 77.81 20.77 C 72.86 21.46 67.94 22.93 63.77 25.77 C 60.05 28.13 57.23 31.60 53.61 34.10 C 58.71 24.93 69.30 20.27 79.39 19.39 Z" />
<path fill="#000000" opacity="1.00" d=" M 95.07 20.53 C 96.93 21.74 99.02 22.91 100.07 24.96 C 101.44 27.53 100.97 30.54 101.04 33.34 C 99.84 31.61 100.40 29.32 99.37 27.52 C 98.49 24.88 96.53 22.84 95.07 20.53 Z" />
<path fill="#000000" opacity="1.00" d=" M 137.42 21.36 C 140.94 20.97 144.69 20.48 148.03 21.98 C 150.91 23.27 153.95 24.53 156.23 26.79 C 157.75 28.93 157.80 31.73 158.13 34.24 C 156.97 31.94 156.13 29.45 154.64 27.32 C 152.47 25.32 149.69 24.14 147.02 22.97 C 143.46 21.31 139.49 22.26 135.77 22.67 C 131.57 23.11 127.43 24.01 123.23 24.38 C 127.48 21.72 132.65 22.10 137.42 21.36 Z" />
<path fill="#000000" opacity="1.00" d=" M 128.45 27.37 C 128.73 27.11 129.30 26.58 129.58 26.32 C 127.66 30.23 126.84 34.46 126.78 38.80 L 125.90 39.03 C 126.03 35.13 124.98 30.17 128.45 27.37 Z" />
<path fill="#000000" opacity="1.00" d=" M 73.38 32.35 C 81.92 31.09 91.25 32.31 98.21 37.76 C 100.54 39.64 103.96 41.51 103.98 44.88 C 103.04 48.46 99.44 50.66 96.11 51.68 C 91.10 49.95 86.71 46.66 81.46 45.56 C 74.90 44.09 68.13 45.13 61.70 46.73 C 59.22 47.47 56.78 46.26 54.91 44.70 C 55.01 40.61 58.34 37.48 61.75 35.73 C 65.31 33.72 69.36 32.88 73.38 32.35 M 83.10 36.39 C 82.70 38.06 82.41 39.77 82.35 41.49 C 87.44 42.54 91.94 45.23 96.87 46.73 C 97.66 46.00 98.35 45.16 98.96 44.27 C 94.80 39.89 89.10 37.07 83.10 36.39 M 62.56 40.30 C 61.47 41.05 60.55 42.01 59.64 42.96 C 62.04 42.42 64.60 41.88 66.33 39.97 C 65.06 39.97 63.80 40.08 62.56 40.30 Z" />
<path fill="#000000" opacity="1.00" d=" M 137.37 37.38 C 142.03 36.79 146.88 36.49 151.50 37.45 C 153.98 38.69 157.49 40.40 157.05 43.71 C 154.10 46.49 149.82 45.87 146.12 46.20 C 140.04 46.80 133.45 46.84 128.22 50.44 C 127.76 52.79 127.73 55.23 128.19 57.57 C 131.03 60.25 134.69 61.85 137.70 64.32 C 140.43 66.20 142.31 69.24 145.51 70.42 C 148.35 71.54 151.20 72.82 153.36 75.06 C 149.90 73.97 146.76 71.99 143.22 71.13 C 140.74 71.40 138.27 71.94 135.79 72.33 C 132.73 75.12 130.62 79.19 126.56 80.69 C 123.90 81.30 120.38 81.74 118.57 79.21 C 117.34 78.11 118.23 76.32 118.95 75.20 C 120.89 75.54 122.70 76.87 124.70 76.64 C 128.52 75.07 131.10 71.46 132.99 67.93 C 131.66 63.77 126.31 63.29 124.36 59.56 C 123.84 56.59 124.16 53.54 123.61 50.57 C 121.52 49.11 119.12 48.15 117.05 46.66 C 116.64 45.34 117.79 44.13 119.12 44.31 C 121.50 44.11 124.39 45.38 126.18 43.22 C 129.28 40.27 133.02 37.87 137.37 37.38 M 141.05 41.04 L 141.06 41.97 C 144.07 42.20 147.09 42.18 150.09 41.96 L 149.79 41.07 C 146.89 40.76 143.95 40.82 141.05 41.04 Z" />
<path fill="#000000" opacity="1.00" d=" M 49.46 41.33 C 50.73 41.16 52.01 41.03 53.30 40.96 C 51.18 41.97 49.01 42.82 46.84 43.70 C 48.04 44.36 51.07 43.33 50.90 45.31 C 48.54 45.13 46.19 44.70 43.96 43.91 C 43.72 41.03 47.63 42.08 49.46 41.33 Z" />
<path fill="#000000" opacity="1.00" d=" M 160.50 42.30 C 164.96 43.04 169.45 43.20 173.96 43.03 C 176.15 42.79 177.78 44.41 179.37 45.63 C 182.07 47.91 185.32 49.86 186.78 53.24 C 188.81 56.88 187.83 61.16 187.05 65.00 C 186.41 67.38 186.05 70.35 183.60 71.60 C 180.38 73.41 176.88 74.67 173.33 75.65 C 176.28 72.79 180.48 72.06 183.76 69.76 C 185.64 67.43 185.93 64.26 186.56 61.42 C 187.66 56.91 185.71 51.76 181.76 49.26 C 179.37 47.61 177.31 45.44 174.68 44.17 C 169.38 43.77 164.04 44.90 158.77 43.78 C 159.20 43.41 160.07 42.67 160.50 42.30 Z" />
<path fill="#000000" opacity="1.00" d=" M 21.32 43.36 C 26.42 42.68 31.62 42.80 36.75 43.12 L 37.13 43.96 C 32.79 44.20 28.44 43.75 24.10 44.11 C 21.32 44.37 18.34 45.24 16.61 47.60 C 14.96 49.69 13.20 51.80 12.28 54.32 C 11.61 58.76 11.81 63.31 12.24 67.77 C 12.80 70.72 13.19 74.26 15.83 76.15 C 18.58 77.97 21.72 79.10 24.44 80.98 C 20.29 80.03 15.30 78.97 12.97 75.01 C 10.29 69.05 10.96 62.30 10.97 55.95 C 10.81 52.22 13.50 49.36 15.59 46.58 C 16.93 44.72 19.11 43.75 21.32 43.36 Z" />
<path fill="#000000" opacity="1.00" d=" M 50.33 46.12 C 51.14 44.96 53.35 46.20 52.21 47.38 C 51.38 48.56 49.21 47.33 50.33 46.12 Z" />
<path fill="#000000" opacity="1.00" d=" M 28.41 47.42 C 33.88 46.42 39.85 46.39 44.88 49.06 C 50.42 51.10 55.80 54.58 61.93 54.07 C 66.93 53.78 70.72 50.17 74.59 47.44 C 75.75 46.42 78.00 47.41 78.06 48.92 C 75.52 53.13 71.18 56.04 66.56 57.56 C 57.87 59.64 49.16 56.38 41.46 52.56 C 36.64 49.87 30.12 50.29 25.81 53.80 C 23.47 56.08 22.06 59.20 21.14 62.30 C 20.24 66.70 23.69 70.46 23.83 74.74 C 23.27 76.52 21.03 76.24 20.22 74.82 C 13.29 65.98 17.52 50.79 28.41 47.42 Z" />
<path fill="#000000" opacity="1.00" d=" M 172.43 48.19 C 175.44 49.11 180.02 49.52 180.75 53.27 C 181.34 56.97 182.30 60.77 181.74 64.52 C 180.37 67.07 177.74 68.55 175.09 69.46 C 176.93 67.48 179.00 65.69 180.65 63.54 C 180.90 59.96 180.39 56.22 179.24 52.83 C 177.18 50.99 174.66 49.80 172.43 48.19 Z" />
<path fill="#000000" opacity="1.00" d=" M 161.43 52.41 C 166.64 51.41 173.02 51.09 176.93 55.38 C 177.20 56.69 176.63 57.94 175.97 59.02 C 172.17 57.67 168.50 55.00 164.26 56.06 C 161.18 56.40 160.22 59.68 158.44 61.69 C 153.95 62.57 148.27 62.38 145.05 58.65 C 144.79 57.36 145.36 56.14 145.97 55.05 C 148.34 55.81 150.53 57.11 152.96 57.71 C 155.93 56.20 158.30 53.65 161.43 52.41 Z" />
<path fill="#000000" opacity="1.00" d=" M 36.15 53.89 C 38.17 53.95 38.52 56.24 39.52 57.57 C 40.63 59.80 43.10 60.75 45.19 61.83 C 50.25 64.05 55.11 66.73 60.27 68.74 C 69.66 72.57 79.64 74.59 89.24 77.77 C 98.75 80.97 108.71 82.60 118.68 83.40 C 128.22 84.78 138.03 83.97 147.25 81.22 C 152.37 79.11 157.81 76.75 161.21 72.18 C 163.63 68.56 162.14 63.77 164.16 60.02 C 164.55 60.00 165.34 59.94 165.73 59.92 C 166.88 62.86 167.91 65.85 169.27 68.71 C 172.87 76.65 171.90 85.58 172.05 94.04 C 172.21 100.43 170.51 106.82 167.37 112.37 C 165.61 115.64 162.19 117.60 158.80 118.81 C 150.18 121.78 140.95 121.90 131.98 122.90 C 124.42 123.05 116.84 123.29 109.30 122.68 C 101.26 121.57 92.96 121.52 85.24 118.77 C 79.73 116.87 74.10 115.05 69.19 111.82 C 63.01 107.80 56.79 103.69 51.70 98.30 C 45.49 92.27 41.33 84.60 36.30 77.65 C 34.29 74.96 34.39 71.40 32.84 68.49 C 30.35 68.55 27.87 69.03 25.38 68.82 C 24.34 68.27 23.86 67.42 23.91 66.25 C 26.94 64.77 30.46 64.28 33.17 62.18 C 34.51 59.56 35.02 56.60 36.15 53.89 M 37.83 63.08 C 35.87 66.65 38.34 70.63 40.56 73.43 C 45.50 76.69 50.98 79.18 56.49 81.33 C 56.36 78.35 56.25 75.34 55.67 72.41 C 53.90 70.66 51.53 69.75 49.36 68.61 C 45.50 66.81 41.81 64.64 37.83 63.08 M 59.87 73.97 C 59.75 77.19 61.21 80.26 63.64 82.34 C 65.62 84.48 68.58 84.98 71.21 85.88 C 75.13 87.09 78.80 89.00 82.80 89.97 C 83.88 87.18 84.52 84.23 84.75 81.25 C 80.87 79.45 76.63 78.69 72.56 77.44 C 68.32 76.31 64.23 74.60 59.87 73.97 M 165.21 74.67 C 164.16 75.60 165.30 77.98 166.70 77.45 C 167.74 76.53 166.60 74.13 165.21 74.67 M 161.12 78.38 C 160.00 79.43 160.42 81.02 160.47 82.37 C 160.81 85.26 160.85 88.17 161.20 91.06 C 162.51 90.38 163.80 89.62 164.95 88.68 C 164.57 84.87 163.09 81.26 161.57 77.78 L 161.12 78.38 M 167.27 80.27 L 167.27 80.74 L 167.74 80.74 L 167.74 80.26 L 167.27 80.27 M 43.96 80.83 C 46.11 84.36 48.45 87.76 50.93 91.06 C 52.27 92.76 53.68 94.69 55.91 95.22 C 57.76 92.58 57.10 89.11 55.55 86.50 C 51.98 84.07 47.87 82.60 43.96 80.83 M 155.29 82.39 C 153.22 83.21 151.17 84.12 149.34 85.41 C 149.56 88.27 150.17 91.15 150.88 93.93 C 152.47 93.66 154.03 93.19 155.53 92.59 C 157.48 89.43 157.34 85.48 155.99 82.13 L 155.29 82.39 M 89.29 83.00 C 88.11 85.75 87.49 88.73 87.25 91.70 C 94.28 93.62 101.53 95.94 108.91 94.85 C 109.20 92.12 109.32 89.28 108.46 86.64 C 102.05 85.55 95.73 83.89 89.29 83.00 M 144.03 86.66 C 139.53 87.16 135.04 87.83 130.51 88.18 C 130.57 90.41 130.82 92.64 131.29 94.82 C 136.38 95.44 141.50 94.62 146.53 93.81 C 146.17 91.37 145.55 88.96 144.72 86.63 L 144.03 86.66 M 113.13 87.07 C 112.84 89.64 112.82 92.24 113.12 94.81 C 117.74 95.25 122.42 95.21 127.05 94.80 C 127.03 92.59 126.58 90.38 125.65 88.36 C 121.50 87.74 117.32 87.18 113.13 87.07 M 61.24 89.27 C 61.12 92.68 60.25 95.92 58.60 98.90 C 60.98 101.08 63.74 102.78 66.38 104.62 C 69.71 106.80 72.90 109.28 76.64 110.71 C 78.41 106.47 81.63 102.28 80.95 97.45 C 79.42 96.18 77.34 96.01 75.54 95.33 C 70.55 93.86 66.01 91.27 61.24 89.27 M 85.27 98.34 C 84.86 100.59 84.90 102.95 84.01 105.08 C 82.96 107.60 81.67 110.03 81.03 112.69 C 88.42 115.68 96.34 117.46 104.28 118.01 C 105.07 113.54 105.35 108.92 104.76 104.41 C 101.93 103.31 98.93 102.78 96.02 101.92 C 92.38 100.91 88.94 99.25 85.27 98.34 M 166.37 102.29 C 164.02 105.15 162.43 108.60 161.84 112.26 C 164.29 109.15 165.93 105.48 166.87 101.64 L 166.37 102.29 M 109.13 105.21 C 108.90 109.46 108.76 113.72 108.63 117.98 C 113.07 119.67 118.02 119.20 122.65 118.77 C 123.98 115.06 124.54 111.12 124.87 107.21 C 119.56 107.12 114.30 106.45 109.13 105.21 M 158.28 105.17 C 154.75 107.75 153.30 112.10 151.84 116.03 C 155.13 115.42 158.33 114.38 161.38 113.01 C 159.94 112.66 158.49 112.34 157.08 111.89 C 157.58 109.45 158.40 107.09 158.93 104.65 L 158.28 105.17 M 148.40 107.29 C 147.10 107.62 145.80 107.96 144.58 108.52 C 142.97 111.55 141.90 114.84 141.01 118.14 C 142.98 117.82 145.07 117.58 146.82 116.55 C 148.26 113.34 149.49 110.04 150.81 106.77 C 150.21 106.90 149.00 107.16 148.40 107.29 M 130.39 108.29 L 129.69 108.68 C 128.10 111.91 127.71 115.57 127.42 119.12 C 130.13 119.07 133.41 119.53 135.55 117.52 C 137.60 114.69 138.88 111.36 139.83 108.02 C 136.69 107.84 133.49 107.66 130.39 108.29 Z" />
<path fill="#000000" opacity="1.00" d=" M 87.27 61.33 C 87.68 62.75 87.96 64.22 88.09 65.70 C 82.42 67.94 76.12 66.89 70.16 67.17 C 74.82 64.70 80.31 66.98 85.19 65.43 C 87.08 65.02 86.66 62.73 87.27 61.33 Z" />
<path fill="#000000" opacity="1.00" d=" M 93.43 62.31 C 96.20 61.79 99.65 61.23 101.98 63.21 C 102.02 63.63 102.09 64.45 102.13 64.87 C 99.15 65.98 95.93 66.23 92.95 67.34 C 92.44 70.35 95.07 72.44 96.05 75.05 C 95.76 75.56 95.17 76.58 94.88 77.09 C 92.69 76.61 90.41 75.63 89.25 73.60 C 88.69 70.92 88.69 68.09 89.25 65.41 C 90.13 63.84 91.75 62.83 93.43 62.31 Z" />
<path fill="#000000" opacity="1.00" d=" M 99.33 69.27 C 103.96 68.41 109.03 68.75 113.18 71.15 C 113.07 72.28 112.58 73.18 111.69 73.87 C 109.68 73.90 107.70 73.54 105.71 73.41 C 103.34 73.07 101.18 74.32 98.92 74.79 C 97.99 73.14 96.98 70.21 99.33 69.27 Z" />
<path fill="#000000" opacity="1.00" d=" M 42.64 111.89 C 46.64 112.99 50.19 115.17 53.73 117.25 C 62.10 121.91 70.93 125.69 79.87 129.11 C 90.72 132.71 102.12 134.17 113.23 136.72 C 119.82 138.32 126.63 137.73 133.30 138.66 C 138.85 139.25 144.44 138.95 150.01 139.06 C 152.85 139.01 155.77 139.27 158.55 138.54 C 161.80 137.39 164.66 135.39 167.61 133.64 C 168.94 132.68 170.59 131.95 171.43 130.48 C 171.84 128.51 172.42 126.58 172.91 124.63 C 173.06 126.94 173.32 129.30 172.73 131.57 C 169.65 134.35 165.91 136.25 162.35 138.32 C 158.95 140.44 154.83 140.03 151.01 140.05 C 144.49 139.89 137.93 140.34 131.43 139.57 C 126.51 138.89 121.50 139.17 116.59 138.32 C 106.03 136.53 95.53 134.33 85.09 131.93 C 79.72 130.72 74.64 128.58 69.64 126.33 C 60.36 122.13 50.73 118.19 42.64 111.89 Z" />
<path fill="#000000" opacity="1.00" d=" M 52.72 111.85 C 57.22 112.48 61.16 114.84 65.11 116.92 C 71.56 120.48 78.41 123.26 85.36 125.68 C 91.37 127.84 97.29 130.47 103.66 131.37 C 110.57 132.63 117.63 131.46 124.57 132.44 C 130.03 133.19 135.55 133.09 141.05 133.05 C 145.60 133.02 150.16 132.15 154.34 130.33 C 158.26 128.69 160.97 125.28 164.40 122.92 C 160.80 130.59 151.87 133.47 144.00 133.97 C 136.90 134.09 129.76 134.31 122.70 133.35 C 116.04 132.53 109.28 133.59 102.66 132.37 C 95.49 131.35 88.91 128.18 82.11 125.88 C 71.81 122.34 62.25 117.04 52.72 111.85 Z" />
<path fill="#000000" opacity="1.00" d=" M 108.25 127.10 C 119.18 126.86 130.14 126.98 141.07 127.04 L 140.81 127.93 C 129.84 128.10 118.84 128.05 107.87 127.95 L 108.25 127.10 Z" />
</g>
<g id="#fcfcfcff">
<path fill="#fcfcfc" opacity="1.00" d=" M 61.43 5.44 C 72.25 4.45 83.14 5.27 94.00 4.98 C 101.85 4.63 109.63 5.78 117.43 6.57 C 122.05 7.09 126.73 6.99 131.35 7.58 C 134.11 7.91 137.22 7.83 139.47 9.74 C 126.20 10.90 112.94 9.05 99.83 7.22 C 92.10 6.86 84.12 6.24 76.63 8.59 C 72.35 9.83 68.06 11.13 64.03 13.04 C 57.70 16.13 52.03 20.34 46.09 24.07 C 44.55 25.01 43.46 26.47 42.46 27.93 C 48.03 24.32 53.28 20.20 59.25 17.23 C 65.13 13.51 71.71 11.15 78.41 9.38 C 85.02 7.40 92.02 7.80 98.82 8.22 C 112.05 9.81 125.37 12.16 138.72 10.61 C 147.33 9.17 156.22 11.87 163.48 16.50 C 167.26 18.89 171.64 21.00 174.00 24.98 C 175.61 29.16 174.62 34.04 176.98 38.00 C 179.65 42.28 184.95 44.12 187.40 48.59 C 189.12 51.40 189.10 54.80 189.14 57.99 C 189.10 60.51 189.17 63.09 188.51 65.55 C 187.03 70.34 184.11 74.49 182.02 79.02 C 180.30 82.74 179.88 86.90 179.95 90.96 C 180.03 98.32 179.99 105.68 179.96 113.04 C 179.79 121.50 183.90 129.92 181.31 138.33 C 177.68 148.23 166.77 152.93 156.95 153.91 C 149.10 154.12 141.10 154.58 133.42 152.60 C 124.87 150.55 116.26 148.71 107.83 146.16 C 104.07 145.04 99.93 145.53 96.36 143.71 C 88.99 140.09 81.72 136.26 74.34 132.68 C 69.08 130.13 63.35 128.66 58.27 125.73 C 51.58 121.89 44.57 118.42 38.81 113.20 C 35.51 110.17 32.09 107.22 29.28 103.70 C 26.61 100.35 25.49 96.13 23.62 92.34 C 22.05 89.08 19.18 86.77 16.81 84.13 C 18.36 84.29 19.91 84.51 21.47 84.66 C 17.70 82.51 12.91 81.42 10.60 77.39 C 6.68 72.36 4.06 65.85 5.33 59.41 C 7.19 53.88 11.01 49.12 15.26 45.19 C 20.15 40.90 27.06 42.26 33.00 41.94 L 32.89 41.03 C 28.95 40.81 25.00 41.11 21.05 41.00 C 23.99 37.44 26.62 33.61 28.25 29.26 C 30.60 22.86 34.49 17.10 39.25 12.24 C 42.76 9.05 47.01 5.93 51.98 6.03 C 55.13 5.91 58.29 5.85 61.43 5.44 M 85.40 13.39 C 76.89 14.37 68.30 16.33 60.90 20.84 C 55.67 23.49 51.11 27.47 47.93 32.42 C 52.45 29.88 55.41 25.39 59.86 22.76 C 65.60 19.27 72.02 16.94 78.60 15.61 C 86.92 14.00 95.59 13.05 103.93 15.05 C 118.55 18.58 133.71 16.90 148.47 15.42 C 151.41 15.00 153.94 16.89 156.63 17.72 C 154.76 16.06 152.92 13.52 150.07 14.12 C 139.74 15.20 129.39 16.46 118.97 16.05 C 111.16 16.33 103.82 12.96 96.04 12.94 C 92.49 12.86 88.93 12.93 85.40 13.39 M 79.39 19.39 C 69.30 20.27 58.71 24.93 53.61 34.10 C 57.23 31.60 60.05 28.13 63.77 25.77 C 67.94 22.93 72.86 21.46 77.81 20.77 C 85.64 19.34 93.62 20.00 101.48 20.71 C 99.47 19.71 97.31 18.93 95.04 18.97 C 89.83 18.88 84.58 18.78 79.39 19.39 M 95.07 20.53 C 96.53 22.84 98.49 24.88 99.37 27.52 C 100.40 29.32 99.84 31.61 101.04 33.34 C 100.97 30.54 101.44 27.53 100.07 24.96 C 99.02 22.91 96.93 21.74 95.07 20.53 M 137.42 21.36 C 132.65 22.10 127.48 21.72 123.23 24.38 C 127.43 24.01 131.57 23.11 135.77 22.67 C 139.49 22.26 143.46 21.31 147.02 22.97 C 149.69 24.14 152.47 25.32 154.64 27.32 C 156.13 29.45 156.97 31.94 158.13 34.24 C 157.80 31.73 157.75 28.93 156.23 26.79 C 153.95 24.53 150.91 23.27 148.03 21.98 C 144.69 20.48 140.94 20.97 137.42 21.36 M 128.45 27.37 C 124.98 30.17 126.03 35.13 125.90 39.03 L 126.78 38.80 C 126.84 34.46 127.66 30.23 129.58 26.32 C 129.30 26.58 128.73 27.11 128.45 27.37 M 73.38 32.35 C 69.36 32.88 65.31 33.72 61.75 35.73 C 58.34 37.48 55.01 40.61 54.91 44.70 C 56.78 46.26 59.22 47.47 61.70 46.73 C 68.13 45.13 74.90 44.09 81.46 45.56 C 86.71 46.66 91.10 49.95 96.11 51.68 C 99.44 50.66 103.04 48.46 103.98 44.88 C 103.96 41.51 100.54 39.64 98.21 37.76 C 91.25 32.31 81.92 31.09 73.38 32.35 M 137.37 37.38 C 133.02 37.87 129.28 40.27 126.18 43.22 C 124.39 45.38 121.50 44.11 119.12 44.31 C 117.79 44.13 116.64 45.34 117.05 46.66 C 119.12 48.15 121.52 49.11 123.61 50.57 C 124.16 53.54 123.84 56.59 124.36 59.56 C 126.31 63.29 131.66 63.77 132.99 67.93 C 131.10 71.46 128.52 75.07 124.70 76.64 C 122.70 76.87 120.89 75.54 118.95 75.20 C 118.23 76.32 117.34 78.11 118.57 79.21 C 120.38 81.74 123.90 81.30 126.56 80.69 C 130.62 79.19 132.73 75.12 135.79 72.33 C 138.27 71.94 140.74 71.40 143.22 71.13 C 146.76 71.99 149.90 73.97 153.36 75.06 C 151.20 72.82 148.35 71.54 145.51 70.42 C 142.31 69.24 140.43 66.20 137.70 64.32 C 134.69 61.85 131.03 60.25 128.19 57.57 C 127.73 55.23 127.76 52.79 128.22 50.44 C 133.45 46.84 140.04 46.80 146.12 46.20 C 149.82 45.87 154.10 46.49 157.05 43.71 C 157.49 40.40 153.98 38.69 151.50 37.45 C 146.88 36.49 142.03 36.79 137.37 37.38 M 49.46 41.33 C 47.63 42.08 43.72 41.03 43.96 43.91 C 46.19 44.70 48.54 45.13 50.90 45.31 C 51.07 43.33 48.04 44.36 46.84 43.70 C 49.01 42.82 51.18 41.97 53.30 40.96 C 52.01 41.03 50.73 41.16 49.46 41.33 M 160.50 42.30 C 160.07 42.67 159.20 43.41 158.77 43.78 C 164.04 44.90 169.38 43.77 174.68 44.17 C 177.31 45.44 179.37 47.61 181.76 49.26 C 185.71 51.76 187.66 56.91 186.56 61.42 C 185.93 64.26 185.64 67.43 183.76 69.76 C 180.48 72.06 176.28 72.79 173.33 75.65 C 176.88 74.67 180.38 73.41 183.60 71.60 C 186.05 70.35 186.41 67.38 187.05 65.00 C 187.83 61.16 188.81 56.88 186.78 53.24 C 185.32 49.86 182.07 47.91 179.37 45.63 C 177.78 44.41 176.15 42.79 173.96 43.03 C 169.45 43.20 164.96 43.04 160.50 42.30 M 21.32 43.36 C 19.11 43.75 16.93 44.72 15.59 46.58 C 13.50 49.36 10.81 52.22 10.97 55.95 C 10.96 62.30 10.29 69.05 12.97 75.01 C 15.30 78.97 20.29 80.03 24.44 80.98 C 21.72 79.10 18.58 77.97 15.83 76.15 C 13.19 74.26 12.80 70.72 12.24 67.77 C 11.81 63.31 11.61 58.76 12.28 54.32 C 13.20 51.80 14.96 49.69 16.61 47.60 C 18.34 45.24 21.32 44.37 24.10 44.11 C 28.44 43.75 32.79 44.20 37.13 43.96 L 36.75 43.12 C 31.62 42.80 26.42 42.68 21.32 43.36 M 50.33 46.12 C 49.21 47.33 51.38 48.56 52.21 47.38 C 53.35 46.20 51.14 44.96 50.33 46.12 M 28.41 47.42 C 17.52 50.79 13.29 65.98 20.22 74.82 C 21.03 76.24 23.27 76.52 23.83 74.74 C 23.69 70.46 20.24 66.70 21.14 62.30 C 22.06 59.20 23.47 56.08 25.81 53.80 C 30.12 50.29 36.64 49.87 41.46 52.56 C 49.16 56.38 57.87 59.64 66.56 57.56 C 71.18 56.04 75.52 53.13 78.06 48.92 C 78.00 47.41 75.75 46.42 74.59 47.44 C 70.72 50.17 66.93 53.78 61.93 54.07 C 55.80 54.58 50.42 51.10 44.88 49.06 C 39.85 46.39 33.88 46.42 28.41 47.42 M 172.43 48.19 C 174.66 49.80 177.18 50.99 179.24 52.83 C 180.39 56.22 180.90 59.96 180.65 63.54 C 179.00 65.69 176.93 67.48 175.09 69.46 C 177.74 68.55 180.37 67.07 181.74 64.52 C 182.30 60.77 181.34 56.97 180.75 53.27 C 180.02 49.52 175.44 49.11 172.43 48.19 M 161.43 52.41 C 158.30 53.65 155.93 56.20 152.96 57.71 C 150.53 57.11 148.34 55.81 145.97 55.05 C 145.36 56.14 144.79 57.36 145.05 58.65 C 148.27 62.38 153.95 62.57 158.44 61.69 C 160.22 59.68 161.18 56.40 164.26 56.06 C 168.50 55.00 172.17 57.67 175.97 59.02 C 176.63 57.94 177.20 56.69 176.93 55.38 C 173.02 51.09 166.64 51.41 161.43 52.41 M 36.15 53.89 C 35.02 56.60 34.51 59.56 33.17 62.18 C 30.46 64.28 26.94 64.77 23.91 66.25 C 23.86 67.42 24.34 68.27 25.38 68.82 C 27.87 69.03 30.35 68.55 32.84 68.49 C 34.39 71.40 34.29 74.96 36.30 77.65 C 41.33 84.60 45.49 92.27 51.70 98.30 C 56.79 103.69 63.01 107.80 69.19 111.82 C 74.10 115.05 79.73 116.87 85.24 118.77 C 92.96 121.52 101.26 121.57 109.30 122.68 C 116.84 123.29 124.42 123.05 131.98 122.90 C 140.95 121.90 150.18 121.78 158.80 118.81 C 162.19 117.60 165.61 115.64 167.37 112.37 C 170.51 106.82 172.21 100.43 172.05 94.04 C 171.90 85.58 172.87 76.65 169.27 68.71 C 167.91 65.85 166.88 62.86 165.73 59.92 C 165.34 59.94 164.55 60.00 164.16 60.02 C 162.14 63.77 163.63 68.56 161.21 72.18 C 157.81 76.75 152.37 79.11 147.25 81.22 C 138.03 83.97 128.22 84.78 118.68 83.40 C 108.71 82.60 98.75 80.97 89.24 77.77 C 79.64 74.59 69.66 72.57 60.27 68.74 C 55.11 66.73 50.25 64.05 45.19 61.83 C 43.10 60.75 40.63 59.80 39.52 57.57 C 38.52 56.24 38.17 53.95 36.15 53.89 M 87.27 61.33 C 86.66 62.73 87.08 65.02 85.19 65.43 C 80.31 66.98 74.82 64.70 70.16 67.17 C 76.12 66.89 82.42 67.94 88.09 65.70 C 87.96 64.22 87.68 62.75 87.27 61.33 M 93.43 62.31 C 91.75 62.83 90.13 63.84 89.25 65.41 C 88.69 68.09 88.69 70.92 89.25 73.60 C 90.41 75.63 92.69 76.61 94.88 77.09 C 95.17 76.58 95.76 75.56 96.05 75.05 C 95.07 72.44 92.44 70.35 92.95 67.34 C 95.93 66.23 99.15 65.98 102.13 64.87 C 102.09 64.45 102.02 63.63 101.98 63.21 C 99.65 61.23 96.20 61.79 93.43 62.31 M 99.33 69.27 C 96.98 70.21 97.99 73.14 98.92 74.79 C 101.18 74.32 103.34 73.07 105.71 73.41 C 107.70 73.54 109.68 73.90 111.69 73.87 C 112.58 73.18 113.07 72.28 113.18 71.15 C 109.03 68.75 103.96 68.41 99.33 69.27 M 42.64 111.89 C 50.73 118.19 60.36 122.13 69.64 126.33 C 74.64 128.58 79.72 130.72 85.09 131.93 C 95.53 134.33 106.03 136.53 116.59 138.32 C 121.50 139.17 126.51 138.89 131.43 139.57 C 137.93 140.34 144.49 139.89 151.01 140.05 C 154.83 140.03 158.95 140.44 162.35 138.32 C 165.91 136.25 169.65 134.35 172.73 131.57 C 173.32 129.30 173.06 126.94 172.91 124.63 C 172.42 126.58 171.84 128.51 171.43 130.48 C 170.59 131.95 168.94 132.68 167.61 133.64 C 164.66 135.39 161.80 137.39 158.55 138.54 C 155.77 139.27 152.85 139.01 150.01 139.06 C 144.44 138.95 138.85 139.25 133.30 138.66 C 126.63 137.73 119.82 138.32 113.23 136.72 C 102.12 134.17 90.72 132.71 79.87 129.11 C 70.93 125.69 62.10 121.91 53.73 117.25 C 50.19 115.17 46.64 112.99 42.64 111.89 M 52.72 111.85 C 62.25 117.04 71.81 122.34 82.11 125.88 C 88.91 128.18 95.49 131.35 102.66 132.37 C 109.28 133.59 116.04 132.53 122.70 133.35 C 129.76 134.31 136.90 134.09 144.00 133.97 C 151.87 133.47 160.80 130.59 164.40 122.92 C 160.97 125.28 158.26 128.69 154.34 130.33 C 150.16 132.15 145.60 133.02 141.05 133.05 C 135.55 133.09 130.03 133.19 124.57 132.44 C 117.63 131.46 110.57 132.63 103.66 131.37 C 97.29 130.47 91.37 127.84 85.36 125.68 C 78.41 123.26 71.56 120.48 65.11 116.92 C 61.16 114.84 57.22 112.48 52.72 111.85 M 108.25 127.10 L 107.87 127.95 C 118.84 128.05 129.84 128.10 140.81 127.93 L 141.07 127.04 C 130.14 126.98 119.18 126.86 108.25 127.10 Z" />
<path fill="#fcfcfc" opacity="1.00" d=" M 83.10 36.39 C 89.10 37.07 94.80 39.89 98.96 44.27 C 98.35 45.16 97.66 46.00 96.87 46.73 C 91.94 45.23 87.44 42.54 82.35 41.49 C 82.41 39.77 82.70 38.06 83.10 36.39 Z" />
<path fill="#fcfcfc" opacity="1.00" d=" M 62.56 40.30 C 63.80 40.08 65.06 39.97 66.33 39.97 C 64.60 41.88 62.04 42.42 59.64 42.96 C 60.55 42.01 61.47 41.05 62.56 40.30 Z" />
<path fill="#fcfcfc" opacity="1.00" d=" M 141.05 41.04 C 143.95 40.82 146.89 40.76 149.79 41.07 L 150.09 41.96 C 147.09 42.18 144.07 42.20 141.06 41.97 L 141.05 41.04 Z" />
<path fill="#fcfcfc" opacity="1.00" d=" M 37.83 63.08 C 41.81 64.64 45.50 66.81 49.36 68.61 C 51.53 69.75 53.90 70.66 55.67 72.41 C 56.25 75.34 56.36 78.35 56.49 81.33 C 50.98 79.18 45.50 76.69 40.56 73.43 C 38.34 70.63 35.87 66.65 37.83 63.08 Z" />
<path fill="#fcfcfc" opacity="1.00" d=" M 59.87 73.97 C 64.23 74.60 68.32 76.31 72.56 77.44 C 76.63 78.69 80.87 79.45 84.75 81.25 C 84.52 84.23 83.88 87.18 82.80 89.97 C 78.80 89.00 75.13 87.09 71.21 85.88 C 68.58 84.98 65.62 84.48 63.64 82.34 C 61.21 80.26 59.75 77.19 59.87 73.97 Z" />
<path fill="#fcfcfc" opacity="1.00" d=" M 165.21 74.67 C 166.60 74.13 167.74 76.53 166.70 77.45 C 165.30 77.98 164.16 75.60 165.21 74.67 Z" />
<path fill="#fcfcfc" opacity="1.00" d=" M 161.12 78.38 L 161.57 77.78 C 163.09 81.26 164.57 84.87 164.95 88.68 C 163.80 89.62 162.51 90.38 161.20 91.06 C 160.85 88.17 160.81 85.26 160.47 82.37 C 160.42 81.02 160.00 79.43 161.12 78.38 Z" />
<path fill="#fcfcfc" opacity="1.00" d=" M 167.27 80.27 L 167.74 80.26 L 167.74 80.74 L 167.27 80.74 L 167.27 80.27 Z" />
<path fill="#fcfcfc" opacity="1.00" d=" M 43.96 80.83 C 47.87 82.60 51.98 84.07 55.55 86.50 C 57.10 89.11 57.76 92.58 55.91 95.22 C 53.68 94.69 52.27 92.76 50.93 91.06 C 48.45 87.76 46.11 84.36 43.96 80.83 Z" />
<path fill="#fcfcfc" opacity="1.00" d=" M 155.29 82.39 L 155.99 82.13 C 157.34 85.48 157.48 89.43 155.53 92.59 C 154.03 93.19 152.47 93.66 150.88 93.93 C 150.17 91.15 149.56 88.27 149.34 85.41 C 151.17 84.12 153.22 83.21 155.29 82.39 Z" />
<path fill="#fcfcfc" opacity="1.00" d=" M 89.29 83.00 C 95.73 83.89 102.05 85.55 108.46 86.64 C 109.32 89.28 109.20 92.12 108.91 94.85 C 101.53 95.94 94.28 93.62 87.25 91.70 C 87.49 88.73 88.11 85.75 89.29 83.00 Z" />
<path fill="#fcfcfc" opacity="1.00" d=" M 144.03 86.66 L 144.72 86.63 C 145.55 88.96 146.17 91.37 146.53 93.81 C 141.50 94.62 136.38 95.44 131.29 94.82 C 130.82 92.64 130.57 90.41 130.51 88.18 C 135.04 87.83 139.53 87.16 144.03 86.66 Z" />
<path fill="#fcfcfc" opacity="1.00" d=" M 113.13 87.07 C 117.32 87.18 121.50 87.74 125.65 88.36 C 126.58 90.38 127.03 92.59 127.05 94.80 C 122.42 95.21 117.74 95.25 113.12 94.81 C 112.82 92.24 112.84 89.64 113.13 87.07 Z" />
<path fill="#fcfcfc" opacity="1.00" d=" M 61.24 89.27 C 66.01 91.27 70.55 93.86 75.54 95.33 C 77.34 96.01 79.42 96.18 80.95 97.45 C 81.63 102.28 78.41 106.47 76.64 110.71 C 72.90 109.28 69.71 106.80 66.38 104.62 C 63.74 102.78 60.98 101.08 58.60 98.90 C 60.25 95.92 61.12 92.68 61.24 89.27 Z" />
<path fill="#fcfcfc" opacity="1.00" d=" M 85.27 98.34 C 88.94 99.25 92.38 100.91 96.02 101.92 C 98.93 102.78 101.93 103.31 104.76 104.41 C 105.35 108.92 105.07 113.54 104.28 118.01 C 96.34 117.46 88.42 115.68 81.03 112.69 C 81.67 110.03 82.96 107.60 84.01 105.08 C 84.90 102.95 84.86 100.59 85.27 98.34 Z" />
<path fill="#fcfcfc" opacity="1.00" d=" M 166.37 102.29 L 166.87 101.64 C 165.93 105.48 164.29 109.15 161.84 112.26 C 162.43 108.60 164.02 105.15 166.37 102.29 Z" />
<path fill="#fcfcfc" opacity="1.00" d=" M 109.13 105.21 C 114.30 106.45 119.56 107.12 124.87 107.21 C 124.54 111.12 123.98 115.06 122.65 118.77 C 118.02 119.20 113.07 119.67 108.63 117.98 C 108.76 113.72 108.90 109.46 109.13 105.21 Z" />
<path fill="#fcfcfc" opacity="1.00" d=" M 158.28 105.17 L 158.93 104.65 C 158.40 107.09 157.58 109.45 157.08 111.89 C 158.49 112.34 159.94 112.66 161.38 113.01 C 158.33 114.38 155.13 115.42 151.84 116.03 C 153.30 112.10 154.75 107.75 158.28 105.17 Z" />
<path fill="#fcfcfc" opacity="1.00" d=" M 148.40 107.29 C 149.00 107.16 150.21 106.90 150.81 106.77 C 149.49 110.04 148.26 113.34 146.82 116.55 C 145.07 117.58 142.98 117.82 141.01 118.14 C 141.90 114.84 142.97 111.55 144.58 108.52 C 145.80 107.96 147.10 107.62 148.40 107.29 Z" />
<path fill="#fcfcfc" opacity="1.00" d=" M 130.39 108.29 C 133.49 107.66 136.69 107.84 139.83 108.02 C 138.88 111.36 137.60 114.69 135.55 117.52 C 133.41 119.53 130.13 119.07 127.42 119.12 C 127.71 115.57 128.10 111.91 129.69 108.68 L 130.39 108.29 Z" />
</g>
</svg>
